<?xml version="1.0" encoding="utf-8"?>
<!-- Generator: Adobe Illustrator 21.1.0, SVG Export Plug-In . SVG Version: 6.00 Build 0)  -->
<svg version="1.1" id="Layer_1" xmlns="http://www.w3.org/2000/svg" xmlns:xlink="http://www.w3.org/1999/xlink" x="0px" y="0px"
	 viewBox="0 0 629 101" style="enable-background:new 0 0 629 101;" xml:space="preserve">
<style type="text/css">
	.st0{fill:#CC0033;}
	.st1{fill:#FFCC00;}
	.st2{fill:#FFFFFF;}
</style>
<g>
	<rect x="0.3" y="-0.1" class="st0" width="629" height="101.6"/>
	<g id="Advance_Auto_Parts">
		<path class="st1" d="M406.6,31h20c11.2,0,13.4,6,11.4,12.4c-2,6.1-8,12.9-20.2,12.9h-5.7l-4.5,14h-13.7L406.6,31z M417.7,48.4
			c3.9,0,6-1.9,7-4.9c1-3.1,0-4.7-4-4.7h-3l-3.1,9.6H417.7z"/>
		<g>
			<path class="st1" d="M65.6,31h13l3.2,39.3H68.9l-0.1-6.4H54l-4.4,6.4H36.4L65.6,31z M68.7,55.9l-0.2-13.2l-9,13.2H68.7z"/>
		</g>
		<g>
			<path class="st1" d="M284.6,31h13l3.2,39.3h-12.9l-0.1-6.4H273l-4.4,6.4h-13.2L284.6,31z M287.7,55.9l-0.2-13.2l-9,13.2H287.7z"
				/>
		</g>
		<path class="st1" d="M107.2,70.3h-16c-7.6,0-10.6-6.2-7.9-15.4c2.7-9.3,9.6-15.5,17.1-15.5c2.1,0,3.8,0.3,5.8,1.3l3.1-9.6h10.5
			L107.2,70.3z M103.2,49.9c-1.2-0.4-2.3-0.6-3.2-0.6c-2.8,0-5.4,2.3-6.4,5.8c-0.9,3.3,0.6,5.5,3.7,5.5c0.9,0,1.3-0.2,2.7-0.5
			L103.2,49.9z"/>
		<path class="st1" d="M117.4,39.9h11.3l-1.1,16.2l10.9-16.2h9.5l-21.3,30.4h-8.6L117.4,39.9z"/>
		<path class="st1" d="M161.9,70.7c-5.4,0.4-7.8-0.2-8.5-2.8c-3.2,2-5.4,2.9-8.7,2.9c-6,0-7.4-3.5-6.1-7.4c0.6-1.8,1.9-3.7,3.7-5.2
			c3.9-3.2,11.2-3.7,14.9-6.2c0.8-2.8-0.1-4.3-3-3.7c-3.7,0.8-5.5,1.8-11.1,5.2l2.9-8.9c4.9-3,9-4.8,13.8-5.2
			c6.1-0.5,11.1,2.9,8.6,10.5l-2.8,8.6c-1,3-1.1,4,1.9,4L161.9,70.7z M155.3,57.9c-2.7,1.6-6,1.4-7.1,4.7c-0.5,1.6,0.1,2.8,1.5,2.8
			c1.3,0,2.3-0.7,3.9-1.7c0-0.6,0.2-1.2,0.6-2.3L155.3,57.9z"/>
		<path class="st1" d="M454,70.7c-5.4,0.4-7.8-0.2-8.5-2.8c-3.2,2-5.4,2.9-8.7,2.9c-6,0-7.3-3.5-6.1-7.4c0.6-1.8,1.9-3.7,3.7-5.2
			c3.9-3.2,11.2-3.7,14.9-6.2c0.8-2.8-0.1-4.3-3-3.7c-3.7,0.8-5.5,1.8-11.1,5.2l2.9-8.9c4.9-3,9-4.8,13.8-5.2
			c6.1-0.5,11.1,2.9,8.6,10.5l-2.8,8.6c-1,3-1.1,4,1.9,4L454,70.7z M447.4,57.9c-2.7,1.6-6,1.4-7.1,4.7c-0.5,1.6,0.1,2.8,1.5,2.8
			c1.3,0,2.3-0.7,3.9-1.7c0-0.6,0.2-1.2,0.6-2.3L447.4,57.9z"/>
		<path class="st1" d="M175.7,39.9h10.5l-1.3,4c3.9-3.2,6.7-4.5,10-4.5c5.9,0,7.8,4.1,5.7,10.8l-6.4,20.1h-10.5l5.4-16.6
			c1-3,0.5-4.4-1.6-4.4c-1.7,0-3.4,1-5.3,3.3l-5.7,17.8h-10.5L175.7,39.9z"/>
		<path class="st1" d="M219.5,68.9c-3.9,1.4-6.2,1.9-9.1,1.9c-8.9,0-13.1-6.4-10.1-15.5c2.4-7.6,9.6-15.9,19.9-15.9
			c2.8,0,5.7,0.5,8.1,1.5L225.1,51c-1.9-1.2-3.9-1.8-6.1-1.8c-3.7,0-7.1,2.4-8.2,5.9c-1.1,3.5,0.8,5.8,4.7,5.8c2,0,3.9-0.5,7.1-1.9
			L219.5,68.9z"/>
		<path class="st1" d="M249.2,65.8c-4.3,3.9-8.5,5-13.6,5c-9.2,0-12.9-7-10.1-15.8c2.9-8.9,10.9-15.6,18.8-15.6
			c8.1,0,11.8,6.8,7.7,17.3h-16.9c-0.9,3.1,0.8,6,4.9,6c2.8,0,7.3-1.1,11.3-3.6L249.2,65.8z M244,52.3c1.2-3.8,0.6-5.8-2-5.8
			c-2.3,0-4.3,1.7-5.4,5.8H244z"/>
		<path class="st1" d="M330.5,59.1c-0.9,2.8,0.2,4,3,3l-5.4,8.2c-1.7,0.4-3.1,0.5-4.7,0.5c-4,0-5.5-1.4-5.1-5.2
			c-3.6,3.5-7.2,5.2-10.8,5.2c-4.4,0-8.2-2.6-5.4-11.5l6.3-19.4H319l-5.3,16.5c-1.1,3.2-0.5,4.6,1.7,4.6c1.6,0,3.1-0.9,5.1-3.1
			l5.8-17.9h10.5L330.5,59.1z"/>
		<path class="st1" d="M353.6,67.4c-3.5,2.3-6.7,3.4-10.3,3.4c-3.2,0-6-1-7.3-3.2c-0.9-1.7-0.8-3.9,0.5-8.1l3.9-12h-4.7l1.2-3.7
			l17-12.9h2.4l-2.9,9.1h8.4l-2.5,7.6H351l-3,9.1c-0.9,2.8-0.3,4,1.9,4c1.8,0,4-0.7,6.7-2.4L353.6,67.4z"/>
		<path class="st1" d="M379.2,39.4c11.4,0,13,8.3,10.7,15.7c-2.6,8.1-10.1,15.7-20.7,15.7c-11.4,0-13.1-8.3-10.7-15.7
			C361,47.3,368.2,39.4,379.2,39.4z M372.3,61c3.1,0,6-2.4,7.1-5.9c1.1-3.5-0.2-5.9-3.3-5.9c-3.1,0-6,2.4-7.1,5.9
			C367.8,58.5,369.2,61,372.3,61z"/>
		<path class="st1" d="M533.2,49.9c-2.4-2.1-4.3-3-6.3-3c-1.5,0-2.8,0.9-3.2,2.1c-1,3,4.5,2.4,6.7,6.4c0.9,1.6,1.2,3.9,0.4,6.3
			c-1.2,3.8-5.5,9.2-13.2,9.2c-4.3,0-8.2-1-10.5-2.9l2.7-8.6c2.5,3,4.6,4.1,7.1,4.1c1.7,0,3.1-0.8,3.5-2.4c1.3-3.8-10-3.7-7.1-12.7
			c1.3-3.9,5.2-8.9,13.6-8.9c3.8,0,6.1,0.7,8.8,2.5L533.2,49.9z"/>
		<path class="st1" d="M477.8,39.9l-2.6,8.1h0.1c3.7-5.7,7.6-8.6,11.3-8.6c2,0,3.8,0.7,5.7,2.4l-8.5,12.1c-1.1-1.8-2.2-2.5-3.7-2.5
			c-2.6,0-5.3,2.9-7,6.4L469,70.3h-10.5l9.8-30.4H477.8z"/>
		<path class="st1" d="M501.7,30.8l-11.8,16.7l2.4,0l-3.9,12c-1.4,4.1-1.5,6.3-0.5,8.1c1.2,2.2,4.1,3.2,7.3,3.2
			c3.5,0,6.8-1.1,10.3-3.4l3-9.1c-2.7,1.6-4.9,2.4-6.7,2.4c-2.2,0-2.8-1.2-1.9-4l3-9.1h8.4l2.5-7.6h-8.4l2.9-9.1L501.7,30.8z"/>
		<polygon class="st1" points="539.9,70.3 552.6,31 547.1,31 534.4,70.3 		"/>
	</g>
	<g id="flag_1_">
		<path d="M579.4,54.2c0,0-1.3,3.9-2.5,7.9l-1,2.2l-1.7,5.3c0,0-1.5,0-4.9-0.1c-1.1,0-2.2,0.1-3.2,0.4l-2.3,1c-1.5,0.4-3,0.9-4.3,1
			c-2.2,0.2-4.1,0.2-6.4,0l-1.8-0.6c-4.8-0.5-7.6-1.3-7.6-1.3l1.7-5.2l0.4-2.3l2.5-7.9l1.2-2.7l0.9-2.9l0.4-2.2l2.5-7.9l0.8-1.4
			l1.9-6c0,0,2.8,0.9,7.6,1.4l2-0.2c2.2,0.2,4.2,0.2,6.4,0c1.3-0.1,2.7-0.6,4.2-1.1l1.3-0.1c1.4-0.4,2.7-0.7,4.1-0.6
			c3.4,0.1,4.9,0.2,4.9,0.2l-1.7,5.4l-0.4,2.1l-2.5,7.9l-1,2.1l-1.1,3.5L579.4,54.2z"/>
		<g>
			<path class="st2" d="M560.7,48.3c2.2,0.2,4.2,0.2,6.4,0c1.3-0.1,2.7-0.6,4.3-1l2.5-7.9c-1.5,0.5-3,0.9-4.3,1.1
				c-2.2,0.2-4.1,0.2-6.4,0L560.7,48.3z"/>
			<path class="st2" d="M555.6,64c2.3,0.2,4.2,0.2,6.4,0c1.3-0.1,2.7-0.6,4.3-1l2.5-7.9c-1.5,0.5-3,0.9-4.3,1
				c-2.2,0.2-4.1,0.2-6.4,0L555.6,64z"/>
			<path class="st2" d="M576.3,31.5l-2.5,7.8c1.8-0.6,3.8-1,5.6-1c3.5,0.1,5,0.2,5,0.2l2.5-7.8c0,0-1.5,0-5-0.2
				C580.2,30.4,578.2,31,576.3,31.5z"/>
			<path class="st2" d="M545.8,62.5c0,0,2.9,0.9,7.7,1.4c0.7,0.1,1.4,0.1,2.1,0.2l-2.5,7.9c-0.7,0-1.4-0.1-2.1-0.2
				c-4.9-0.5-7.7-1.4-7.7-1.4L545.8,62.5z"/>
			<path class="st2" d="M563.2,40.4l2.5-7.7c-0.7,0-1.3-0.1-2-0.2C558.8,32,556,31,556,31l-2.5,7.8c0,0,2.8,0.9,7.7,1.4
				C561.9,40.3,562.6,40.3,563.2,40.4z"/>
			<path class="st2" d="M548.4,54.6l2.5-7.9c0,0,2.8,0.9,7.7,1.4c0.7,0.1,1.4,0.1,2.1,0.2l-2.5,7.9c-0.7,0-1.3-0.1-2.1-0.2
				C551.2,55.5,548.4,54.6,548.4,54.6z"/>
			<path class="st2" d="M576.9,62.1c0,0-1.5,0-4.9-0.1c-1.9-0.1-3.8,0.4-5.6,1l-2.6,7.9c1.8-0.6,3.8-1.1,5.7-1c3.5,0.1,5,0.1,5,0.1
				L576.9,62.1"/>
			<path class="st2" d="M568.8,55l2.5-7.9c1.8-0.6,3.8-1,5.6-1c3.5,0.1,5,0.1,5,0.1l-2.5,7.9c0,0-1.4-0.1-4.9-0.2
				C572.6,54,570.6,54.5,568.8,55z"/>
		</g>
	</g>
	<path id="reg_trade_mark_1_" class="st2" d="M588.3,32.4c0-1.1,0.9-2,2-2c1.1,0,2,0.9,2,2c0,1.2-0.9,2-2,2
		C589.1,34.5,588.3,33.6,588.3,32.4z M590.2,34.9c1.3,0,2.5-1,2.5-2.4c0-1.4-1.1-2.4-2.5-2.4c-1.3,0-2.5,1-2.5,2.4
		C587.8,33.9,588.9,34.9,590.2,34.9z M589.7,32.6h0.5l0.7,1.2h0.5l-0.8-1.2c0.4-0.1,0.7-0.3,0.7-0.8c0-0.6-0.3-0.8-1-0.8h-1.1v2.8
		h0.4V32.6z M589.7,32.3v-0.9h0.6c0.3,0,0.6,0.1,0.6,0.4c0,0.4-0.3,0.5-0.7,0.5H589.7z"/>
</g>
</svg>
